<?xml version="1.0" encoding="UTF-8" standalone="no"?>
<svg
    xmlns:dc="http://purl.org/dc/elements/1.1/"
    xmlns:cc="http://creativecommons.org/ns#"
    xmlns:rdf="http://www.w3.org/1999/02/22-rdf-syntax-ns#"
    xmlns="http://www.w3.org/2000/svg"
    xmlns:sodipodi="http://sodipodi.sourceforge.net/DTD/sodipodi-0.dtd"
    xmlns:inkscape="http://www.inkscape.org/namespaces/inkscape"
    version="1.1"
    viewBox="0 0 40 40"
    stroke-miterlimit="10"
    id="svg17"
    sodipodi:docname="pluginIcon.svg"
    width="40"
    height="40"
    style="fill:none;stroke:none;stroke-linecap:square;stroke-miterlimit:10"
    inkscape:version="0.92.4 (5da689c313, 2019-01-14)">
  <metadata
      id="metadata23">
    <rdf:RDF>
      <cc:Work
          rdf:about="">
        <dc:format>image/svg+xml</dc:format>
        <dc:type
            rdf:resource="http://purl.org/dc/dcmitype/StillImage"/>
        <dc:title></dc:title>
      </cc:Work>
    </rdf:RDF>
  </metadata>
  <defs
      id="defs21"/>
  <sodipodi:namedview
      pagecolor="#ffffff"
      bordercolor="#666666"
      borderopacity="1"
      objecttolerance="10"
      gridtolerance="10"
      guidetolerance="10"
      inkscape:pageopacity="0"
      inkscape:pageshadow="2"
      inkscape:window-width="1254"
      inkscape:window-height="776"
      id="namedview19"
      showgrid="false"
      fit-margin-top="0"
      fit-margin-left="0"
      fit-margin-right="0"
      fit-margin-bottom="0"
      inkscape:zoom="13.57645"
      inkscape:cx="10.667191"
      inkscape:cy="18.388367"
      inkscape:window-x="1028"
      inkscape:window-y="318"
      inkscape:window-maximized="0"
      inkscape:current-layer="svg17"
      inkscape:pagecheckerboard="true"/>
  <clipPath
      id="p.0">
    <path
        d="M 0,0 H 960 V 720 H 0 Z"
        id="path2"
        inkscape:connector-curvature="0"
        style="clip-rule:nonzero"/>
  </clipPath>
  <g
      id="g14"
      transform="matrix(2.9028571,0,0,2.9028571,-3.2228568,-72.891427)">
    <circle
        r="6.444984"
        cy="32"
        cx="8"
        id="path14"
        style="fill:#f2f2f2;stroke-width:0.96153849"/>
    <path
        style="fill:#6d9eeb;fill-rule:nonzero;stroke:none;stroke-width:0.17367232;stroke-linecap:square;stroke-miterlimit:10"
        inkscape:connector-curvature="0"
        id="path9"
        d="m 8.5535819,33.900423 q -0.4411534,0.5246 -1.2472119,0.813941 -0.8060574,0.289342 -1.7863987,0.289342 -1.0293574,0 -1.8054613,-0.446181 Q 2.9384082,34.111344 2.5163163,33.26225 2.0942265,32.413154 2.0833336,31.266605 v -0.535417 q 0,-1.178998 0.4003049,-2.041614 0.400306,-0.862617 1.154623,-1.319614 0.7543192,-0.456997 1.7673371,-0.456997 1.4106018,0 2.2057663,0.667918 0.7951655,0.66792 0.942217,1.944268 h -1.59033 Q 6.8543246,28.849117 6.4812488,28.535439 6.1081763,28.22176 5.4546158,28.22176 q -0.8332898,0 -1.2689968,0.62195 -0.435707,0.621947 -0.4411534,1.849621 v 0.502966 q 0,1.23849 0.4738312,1.871255 0.4738312,0.632766 1.3888159,0.632766 0.9204322,0 1.3125675,-0.389394 V 31.953453 H 5.432831 v -1.195224 h 3.1207509 z"/>
    <path
        style="fill:#6d9eeb;fill-rule:nonzero;stroke:none;stroke-width:0.17367232;stroke-linecap:square;stroke-miterlimit:10"
        inkscape:connector-curvature="0"
        id="path13"
        d="m 10.348485,32.064938 0.04901,0.676033 q 0.631775,-0.784197 1.693811,-0.784197 0.936769,0 1.394262,0.546234 0.457492,0.546232 0.468385,1.633291 v 3.780368 h -1.573992 v -3.74251 q 0,-0.49756 -0.217853,-0.722 -0.217854,-0.224443 -0.724363,-0.224443 -0.664454,0 -0.99668,0.562458 v 4.126495 H 8.8670754 v -5.851729 z"/>
  </g>
</svg>
