<?xml version="1.0" encoding="UTF-8" standalone="no"?>
<svg
    xmlns:dc="http://purl.org/dc/elements/1.1/"
    xmlns:cc="http://creativecommons.org/ns#"
    xmlns:rdf="http://www.w3.org/1999/02/22-rdf-syntax-ns#"
    xmlns="http://www.w3.org/2000/svg"
    xmlns:sodipodi="http://sodipodi.sourceforge.net/DTD/sodipodi-0.dtd"
    xmlns:inkscape="http://www.inkscape.org/namespaces/inkscape"
    version="1.1"
    viewBox="0 0 16 16"
    stroke-miterlimit="10"
    id="svg17"
    sodipodi:docname="gn.svg"
    width="16"
    height="16"
    style="fill:none;stroke:none;stroke-linecap:square;stroke-miterlimit:10"
    inkscape:version="0.92.4 (5da689c313, 2019-01-14)">
  <metadata
      id="metadata23">
    <rdf:RDF>
      <cc:Work
          rdf:about="">
        <dc:format>image/svg+xml</dc:format>
        <dc:type
            rdf:resource="http://purl.org/dc/dcmitype/StillImage"/>
        <dc:title></dc:title>
      </cc:Work>
    </rdf:RDF>
  </metadata>
  <defs
      id="defs21"/>
  <sodipodi:namedview
      pagecolor="#ffffff"
      bordercolor="#666666"
      borderopacity="1"
      objecttolerance="10"
      gridtolerance="10"
      guidetolerance="10"
      inkscape:pageopacity="0"
      inkscape:pageshadow="2"
      inkscape:window-width="1254"
      inkscape:window-height="776"
      id="namedview19"
      showgrid="false"
      fit-margin-top="0"
      fit-margin-left="0"
      fit-margin-right="0"
      fit-margin-bottom="0"
      inkscape:zoom="13.57645"
      inkscape:cx="11.366932"
      inkscape:cy="7.198468"
      inkscape:window-x="1028"
      inkscape:window-y="318"
      inkscape:window-maximized="0"
      inkscape:current-layer="svg17"
      inkscape:pagecheckerboard="true"/>
  <clipPath
      id="p.0">
    <path
        d="M 0,0 H 960 V 720 H 0 Z"
        id="path2"
        inkscape:connector-curvature="0"
        style="clip-rule:nonzero"/>
  </clipPath>
  <circle
      style="fill:#f2f2f2;stroke-width:0.96153849"
      id="path14"
      cx="8"
      cy="8"
      r="6.444984"/>
  <path
      d="M 8.5535819,9.9004233 Q 8.1124285,10.425023 7.30637,10.714364 6.5003126,11.003706 5.5199713,11.003706 4.4906139,11.003706 3.71451,10.557525 2.9384082,10.111344 2.5163163,9.2622501 2.0942265,8.4131543 2.0833336,7.2666047 V 6.7311882 q 0,-1.1789983 0.4003049,-2.0416146 0.400306,-0.8626163 1.154623,-1.3196136 0.7543192,-0.4569972 1.7673371,-0.4569972 1.4106018,0 2.2057663,0.6679184 0.7951655,0.6679203 0.942217,1.9442675 h -1.59033 Q 6.8543246,4.8491168 6.4812488,4.5354394 6.1081763,4.2217602 5.4546158,4.2217602 q -0.8332898,0 -1.2689968,0.6219494 -0.435707,0.6219475 -0.4411534,1.8496212 v 0.5029663 q 0,1.2384895 0.4738312,1.8712551 0.4738312,0.6327657 1.3888159,0.6327657 0.9204322,0 1.3125675,-0.3893936 V 7.9534532 H 5.432831 V 6.7582295 h 3.1207509 z"
      id="path9"
      inkscape:connector-curvature="0"
      style="fill:#6d9eeb;fill-rule:nonzero;stroke:none;stroke-width:0.17367232;stroke-linecap:square;stroke-miterlimit:10"/>
  <path
      d="m 10.348485,8.0649382 0.04901,0.6760323 q 0.631775,-0.7841968 1.693811,-0.7841968 0.936769,0 1.394262,0.5462344 0.457492,0.5462323 0.468385,1.6332909 v 3.780368 h -1.573992 v -3.74251 q 0,-0.4975595 -0.217853,-0.7219999 -0.217854,-0.2244435 -0.724363,-0.2244435 -0.664454,0 -0.99668,0.5624581 V 13.916667 H 8.8670754 V 8.0649382 Z"
      id="path13"
      inkscape:connector-curvature="0"
      style="fill:#6d9eeb;fill-rule:nonzero;stroke:none;stroke-width:0.17367232;stroke-linecap:square;stroke-miterlimit:10"/>
</svg>
